<svg id="visual" viewBox="0 0 900 675" width="900" height="675" xmlns="http://www.w3.org/2000/svg" xmlns:xlink="http://www.w3.org/1999/xlink" version="1.1"><rect x="0" y="0" width="900" height="675" fill="#6600FF"></rect><defs><linearGradient id="grad1_0" x1="25%" y1="0%" x2="100%" y2="100%"><stop offset="23.333333333333336%" stop-color="#6600ff" stop-opacity="1"></stop><stop offset="76.66666666666666%" stop-color="#6600ff" stop-opacity="1"></stop></linearGradient></defs><defs><linearGradient id="grad2_0" x1="0%" y1="0%" x2="75%" y2="100%"><stop offset="23.333333333333336%" stop-color="#6600ff" stop-opacity="1"></stop><stop offset="76.66666666666666%" stop-color="#6600ff" stop-opacity="1"></stop></linearGradient></defs><g transform="translate(900, 0)"><path d="M0 506.3C-66.7 499.7 -133.5 493.2 -193.7 467.7C-254 442.3 -307.7 397.9 -347.2 347.2C-386.7 296.5 -411.9 239.5 -436.1 180.6C-460.2 121.7 -483.2 60.9 -506.2 0L0 0Z" fill="#001122"></path></g><g transform="translate(0, 675)"><path d="M0 -506.2C69 -502.5 138 -498.7 193.7 -467.7C249.4 -436.7 291.8 -378.4 325.3 -325.3C358.8 -272.1 383.4 -224 412.1 -170.7C440.7 -117.3 473.5 -58.7 506.3 0L0 0Z" fill="#001122"></path></g></svg>