<svg xmlns="http://www.w3.org/2000/svg" version="1.1" xmlns:xlink="http://www.w3.org/1999/xlink" xmlns:svgjs="http://svgjs.com/svgjs" width="1100" height="700" preserveAspectRatio="none" viewBox="0 0 1100 700"><g mask="url(&quot;#SvgjsMask1021&quot;)" fill="none"><rect width="1100" height="700" x="0" y="0" fill="#0e2a47"></rect><path d="M124.55 242.64L179.28 242.64L179.28 258.75L124.55 258.75z" fill="#e73635"></path><path d="M1072.64 88.55L1093.85 88.55L1093.85 117.35L1072.64 117.35z" stroke="#d3b714"></path><path d="M228.69 129.89L263 129.89L263 164.2L228.69 164.2z" fill="#e73635"></path><path d="M4.21 226.06 a0.11 0.11 0 1 0 0.22 0 a0.11 0.11 0 1 0 -0.22 0z" stroke="#e73635"></path><path d="M286.13 456.09L293.65 456.09L293.65 463.61L286.13 463.61z" stroke="#037b0b"></path><path d="M929.37 324.15L984.03 324.15L984.03 378.81L929.37 378.81z" stroke="#037b0b"></path><path d="M232.98 625.44 a64.08 64.08 0 1 0 128.16 0 a64.08 64.08 0 1 0 -128.16 0z" stroke="#d3b714"></path><path d="M337.66 275.88a37.55 37.55 0 1 0-53.22 52.98z" stroke="rgba(90, 92, 116, 1)"></path><path d="M383.28 621.62L390.55 621.62L390.55 628.89L383.28 628.89z" fill="#d3b714"></path><path d="M535.38 455.04 a65.57 65.57 0 1 0 131.14 0 a65.57 65.57 0 1 0 -131.14 0z" fill="rgba(31, 42, 162, 1)"></path><path d="M445.7 93.19L479.95 93.19L479.95 127.44L445.7 127.44z" stroke="rgba(90, 92, 116, 1)"></path><path d="M911.74 99.42L965.47 99.42L965.47 125.63L911.74 125.63z" fill="#037b0b"></path><path d="M80.21 551.54L88.71 551.54L88.71 567.43L80.21 567.43z" stroke="rgba(31, 42, 162, 1)"></path><path d="M644.31 324.83L649.79 324.83L649.79 330.31L644.31 330.31z" stroke="#037b0b"></path><path d="M787.31 551.85L805.03 551.85L805.03 577.56L787.31 577.56z" stroke="rgba(31, 42, 162, 1)"></path><path d="M916.12 614.87L952.3 614.87L952.3 625.28L916.12 625.28z" stroke="rgba(90, 92, 116, 1)"></path><path d="M1051.03 690.84 a48.32 48.32 0 1 0 96.64 0 a48.32 48.32 0 1 0 -96.64 0z" fill="#037b0b"></path><path d="M484.99 570.95L546.37 570.95L546.37 632.33L484.99 632.33z" fill="#d3b714"></path><path d="M705.32 513.01L745.93 513.01L745.93 553.62L705.32 553.62z" stroke="rgba(31, 42, 162, 1)"></path><path d="M810.48 345.41a23.86 23.86 0 1 0-19.8-43.42z" stroke="#d3b714"></path></g><defs><mask id="SvgjsMask1021"><rect width="1100" height="700" fill="#ffffff"></rect></mask></defs></svg>