<svg id="visual" viewBox="0 0 900 675" width="900" height="675" xmlns="http://www.w3.org/2000/svg" xmlns:xlink="http://www.w3.org/1999/xlink" version="1.1"><path d="M0 96L13.7 92.5C27.3 89 54.7 82 82 82C109.3 82 136.7 89 163.8 88C191 87 218 78 245.2 71.2C272.3 64.3 299.7 59.7 327 58.5C354.3 57.3 381.7 59.7 409 67.5C436.3 75.3 463.7 88.7 491 88.7C518.3 88.7 545.7 75.3 573 82.2C600.3 89 627.7 116 654.8 130.7C682 145.3 709 147.7 736.2 137.5C763.3 127.3 790.7 104.7 818 93.3C845.3 82 872.7 82 886.3 82L900 82L900 0L886.3 0C872.7 0 845.3 0 818 0C790.7 0 763.3 0 736.2 0C709 0 682 0 654.8 0C627.7 0 600.3 0 573 0C545.7 0 518.3 0 491 0C463.7 0 436.3 0 409 0C381.7 0 354.3 0 327 0C299.7 0 272.3 0 245.2 0C218 0 191 0 163.8 0C136.7 0 109.3 0 82 0C54.7 0 27.3 0 13.7 0L0 0Z" fill="#6198ff"></path><path d="M0 170L13.7 167.7C27.3 165.3 54.7 160.7 82 164C109.3 167.3 136.7 178.7 163.8 176.5C191 174.3 218 158.7 245.2 149.7C272.3 140.7 299.7 138.3 327 138.3C354.3 138.3 381.7 140.7 409 152C436.3 163.3 463.7 183.7 491 183.7C518.3 183.7 545.7 163.3 573 166.7C600.3 170 627.7 197 654.8 206C682 215 709 206 736.2 189.2C763.3 172.3 790.7 147.7 818 139.8C845.3 132 872.7 141 886.3 145.5L900 150L900 80L886.3 80C872.7 80 845.3 80 818 91.3C790.7 102.7 763.3 125.3 736.2 135.5C709 145.7 682 143.3 654.8 128.7C627.7 114 600.3 87 573 80.2C545.7 73.3 518.3 86.7 491 86.7C463.7 86.7 436.3 73.3 409 65.5C381.7 57.7 354.3 55.3 327 56.5C299.7 57.7 272.3 62.3 245.2 69.2C218 76 191 85 163.8 86C136.7 87 109.3 80 82 80C54.7 80 27.3 87 13.7 90.5L0 94Z" fill="#3c80ff"></path><path d="M0 339L13.7 322C27.3 305 54.7 271 82 283.3C109.3 295.7 136.7 354.3 163.8 365.7C191 377 218 341 245.2 321.8C272.3 302.7 299.7 300.3 327 318.3C354.3 336.3 381.7 374.7 409 398.3C436.3 422 463.7 431 491 406.2C518.3 381.3 545.7 322.7 573 319.3C600.3 316 627.7 368 654.8 381.5C682 395 709 370 736.2 349.7C763.3 329.3 790.7 313.7 818 332.8C845.3 352 872.7 406 886.3 433L900 460L900 148L886.3 143.5C872.7 139 845.3 130 818 137.8C790.7 145.7 763.3 170.3 736.2 187.2C709 204 682 213 654.8 204C627.7 195 600.3 168 573 164.7C545.7 161.3 518.3 181.7 491 181.7C463.7 181.7 436.3 161.3 409 150C381.7 138.7 354.3 136.3 327 136.3C299.7 136.3 272.3 138.7 245.2 147.7C218 156.7 191 172.3 163.8 174.5C136.7 176.7 109.3 165.3 82 162C54.7 158.7 27.3 163.3 13.7 165.7L0 168Z" fill="#0066ff"></path><path d="M0 528L13.7 522.3C27.3 516.7 54.7 505.3 82 501.8C109.3 498.3 136.7 502.7 163.8 510.5C191 518.3 218 529.7 245.2 538.7C272.3 547.7 299.7 554.3 327 564.5C354.3 574.7 381.7 588.3 409 591.8C436.3 595.3 463.7 588.7 491 575.2C518.3 561.7 545.7 541.3 573 543.5C600.3 545.7 627.7 570.3 654.8 572.5C682 574.7 709 554.3 736.2 548.7C763.3 543 790.7 552 818 562.2C845.3 572.3 872.7 583.7 886.3 589.3L900 595L900 458L886.3 431C872.7 404 845.3 350 818 330.8C790.7 311.7 763.3 327.3 736.2 347.7C709 368 682 393 654.8 379.5C627.7 366 600.3 314 573 317.3C545.7 320.7 518.3 379.3 491 404.2C463.7 429 436.3 420 409 396.3C381.7 372.7 354.3 334.3 327 316.3C299.7 298.3 272.3 300.7 245.2 319.8C218 339 191 375 163.8 363.7C136.7 352.3 109.3 293.7 82 281.3C54.7 269 27.3 303 13.7 320L0 337Z" fill="#0059dd"></path><path d="M0 676L13.7 676C27.3 676 54.7 676 82 676C109.3 676 136.7 676 163.8 676C191 676 218 676 245.2 676C272.3 676 299.7 676 327 676C354.3 676 381.7 676 409 676C436.3 676 463.7 676 491 676C518.3 676 545.7 676 573 676C600.3 676 627.7 676 654.8 676C682 676 709 676 736.2 676C763.3 676 790.7 676 818 676C845.3 676 872.7 676 886.3 676L900 676L900 593L886.3 587.3C872.7 581.7 845.3 570.3 818 560.2C790.7 550 763.3 541 736.2 546.7C709 552.3 682 572.7 654.8 570.5C627.7 568.3 600.3 543.7 573 541.5C545.7 539.3 518.3 559.7 491 573.2C463.7 586.7 436.3 593.3 409 589.8C381.7 586.3 354.3 572.7 327 562.5C299.7 552.3 272.3 545.7 245.2 536.7C218 527.7 191 516.3 163.8 508.5C136.7 500.7 109.3 496.3 82 499.8C54.7 503.3 27.3 514.7 13.7 520.3L0 526Z" fill="#004cbb"></path></svg>