<svg id="visual" viewBox="0 0 900 675" width="900" height="675" xmlns="http://www.w3.org/2000/svg" xmlns:xlink="http://www.w3.org/1999/xlink" version="1.1"><path d="M0 123L37.5 117.3C75 111.7 150 100.3 225 94.7C300 89 375 89 450 87.8C525 86.7 600 84.3 675 87.7C750 91 825 100 862.5 104.5L900 109L900 0L862.5 0C825 0 750 0 675 0C600 0 525 0 450 0C375 0 300 0 225 0C150 0 75 0 37.5 0L0 0Z" fill="#6198ff"></path><path d="M0 251L37.5 251C75 251 150 251 225 243.2C300 235.3 375 219.7 450 211.8C525 204 600 204 675 214C750 224 825 244 862.5 254L900 264L900 107L862.5 102.5C825 98 750 89 675 85.7C600 82.3 525 84.7 450 85.8C375 87 300 87 225 92.7C150 98.3 75 109.7 37.5 115.3L0 121Z" fill="#4385ff"></path><path d="M0 393L37.5 404.2C75 415.3 150 437.7 225 437.7C300 437.7 375 415.3 450 400.7C525 386 600 379 675 373.3C750 367.7 825 363.3 862.5 361.2L900 359L900 262L862.5 252C825 242 750 222 675 212C600 202 525 202 450 209.8C375 217.7 300 233.3 225 241.2C150 249 75 249 37.5 249L0 249Z" fill="#2071ff"></path><path d="M0 453L37.5 463.2C75 473.3 150 493.7 225 490.3C300 487 375 460 450 444.3C525 428.7 600 424.3 675 423.2C750 422 825 424 862.5 425L900 426L900 357L862.5 359.2C825 361.3 750 365.7 675 371.3C600 377 525 384 450 398.7C375 413.3 300 435.7 225 435.7C150 435.7 75 413.3 37.5 402.2L0 391Z" fill="#0061f1"></path><path d="M0 528L37.5 533.5C75 539 150 550 225 551C300 552 375 543 450 527.3C525 511.7 600 489.3 675 479.2C750 469 825 471 862.5 472L900 473L900 424L862.5 423C825 422 750 420 675 421.2C600 422.3 525 426.7 450 442.3C375 458 300 485 225 488.3C150 491.7 75 471.3 37.5 461.2L0 451Z" fill="#0056d6"></path><path d="M0 676L37.5 676C75 676 150 676 225 676C300 676 375 676 450 676C525 676 600 676 675 676C750 676 825 676 862.5 676L900 676L900 471L862.5 470C825 469 750 467 675 477.2C600 487.3 525 509.7 450 525.3C375 541 300 550 225 549C150 548 75 537 37.5 531.5L0 526Z" fill="#004cbb"></path></svg>